<?xml version="1.0" encoding="iso-8859-1"?>
<!-- Generator: Adobe Illustrator 19.0.0, SVG Export Plug-In . SVG Version: 6.00 Build 0)  -->
<svg version="1.1" id="Layer_1" xmlns="http://www.w3.org/2000/svg" xmlns:xlink="http://www.w3.org/1999/xlink" x="0px" y="0px"
	 viewBox="0 0 299.06 299.06" style="enable-background:new 0 0 299.06 299.06;" xml:space="preserve">
<g>
	<g>
		<g>
			<path d="M94.604,140c-4.147-4.147-10.871-4.147-15.017,0L3.105,216.482c-3.275,3.275-4.185,8.479-1.635,12.941
				c3.684,6.441,11.634,7.035,16.886,1.793l68.744-68.69l69.431,69.436c1.989,1.994,4.692,3.111,7.509,3.111
				c9.459,0,14.2-11.437,7.509-18.129L94.604,140z"/>
			<path d="M295.524,216.7c-15.628-15.628-59.138-59.138-76.705-76.705c-4.147-4.147-10.86-4.136-15.012,0.011l-33.064,33.064
				c-4.103,4.103-4.103,10.756,0,14.859l0.153,0.153c4.103,4.103,10.751,4.103,14.854,0l25.572-25.55l69.431,69.431
				c3.28,3.28,8.49,4.196,12.963,1.635C300.172,229.908,300.783,221.958,295.524,216.7z"/>
			<circle cx="258.455" cy="82.834" r="18.848"/>
		</g>
	</g>
</g>
<g>
</g>
<g>
</g>
<g>
</g>
<g>
</g>
<g>
</g>
<g>
</g>
<g>
</g>
<g>
</g>
<g>
</g>
<g>
</g>
<g>
</g>
<g>
</g>
<g>
</g>
<g>
</g>
<g>
</g>
</svg>
